<?xml version="1.0" standalone="no"?>
<!DOCTYPE svg PUBLIC "-//W3C//DTD SVG 20010904//EN"
 "http://www.w3.org/TR/2001/REC-SVG-20010904/DTD/svg10.dtd">
<svg version="1.0" xmlns="http://www.w3.org/2000/svg"
 width="313.000000pt" height="313.000000pt" viewBox="0 0 313.000000 313.000000"
 preserveAspectRatio="xMidYMid meet">
<metadata>
Created by potrace 1.14, written by Peter Selinger 2001-2017
</metadata>
<g transform="translate(0.000000,313.000000) scale(0.100000,-0.100000)"
fill="#000000" stroke="none">
<path d="M622 2698 c-17 -17 -17 -939 0 -956 9 -9 68 -12 205 -12 113 0 193
-4 193 -9 0 -22 -163 -172 -250 -230 -109 -73 -187 -113 -323 -166 -75 -30
-96 -42 -92 -54 14 -36 111 -181 122 -181 36 0 311 135 416 205 l53 35 199 -2
199 -3 -73 -73 c-176 -174 -485 -326 -808 -398 -51 -12 -83 -24 -83 -32 0 -11
85 -189 96 -201 7 -8 169 41 304 91 168 63 337 147 460 229 115 77 282 240
334 327 l37 62 190 0 190 0 -37 -58 c-183 -289 -459 -496 -878 -659 -78 -30
-144 -57 -148 -61 -4 -4 21 -51 57 -104 l65 -97 72 30 c161 67 381 183 508
267 274 182 448 366 557 590 l46 92 119 0 c118 0 119 0 128 -26 23 -59 5 -426
-25 -531 -38 -129 -197 -175 -416 -119 -52 13 -103 28 -113 32 -18 7 -19 2
-14 -120 3 -71 10 -132 15 -137 5 -5 44 -16 88 -26 113 -25 340 -25 411 0 148
51 230 159 264 347 15 83 31 700 19 743 -6 21 -19 38 -35 45 -18 9 -223 12
-754 12 -402 0 -730 2 -730 4 0 3 23 43 51 90 l52 86 601 0 c455 0 605 3 614
12 16 16 17 919 2 949 -10 19 -32 19 -943 19 -712 0 -936 -3 -945 -12z m1668
-298 l0 -90 -725 0 -725 0 0 90 0 90 725 0 725 0 0 -90z m0 -375 l0 -75 -725
0 -725 0 0 75 0 75 725 0 725 0 0 -75z"/>
</g>
</svg>
